<svg width="301" height="151" viewBox="0 0 301 151" fill="none" xmlns="http://www.w3.org/2000/svg">
<path d="M151.001 1C109.247 1 71.6608 1.00906 44.5 8.71777C30.9427 12.5656 20.0874 18.3064 12.6191 26.834C5.16735 35.3428 1 46.7271 1 62.0449C1.00007 77.3626 5.16741 88.7461 12.6191 97.2549C20.0874 105.783 30.9427 111.523 44.5 115.371C71.6608 123.08 109.247 123.089 151.001 123.089C176.182 123.089 199.777 123.086 220.469 121.373L221.016 121.328L221.348 121.766L240.115 146.496L233.733 121.092L233.462 120.008L234.569 119.857C254.562 117.142 270.918 112.16 282.267 103.101C293.554 94.089 300 80.9504 300 61.6172L299.988 60.2021C299.741 45.7002 295.665 34.8356 288.536 26.6514C281.162 18.1848 270.431 12.4849 257 8.66406C230.09 1.00914 192.755 1 151.001 1Z" fill="white" stroke="black" stroke-width="2"/>
</svg>
