<svg width="891" height="202" viewBox="0 0 891 202" fill="none" xmlns="http://www.w3.org/2000/svg">
<path d="M444.016 1C567.474 1 679.144 1.00224 759.954 11.3672C800.368 16.5508 832.956 24.3147 855.415 35.9043C877.845 47.4786 890 62.7621 890 83C890 103.238 877.845 118.521 855.415 130.096C832.956 141.685 800.368 149.449 759.954 154.633C679.144 164.998 567.474 165 444.016 165C369.506 165 299.55 164.998 238.177 162.701L237.882 162.689L237.628 162.841L176.505 199.241L197.12 162.15L197.891 160.764L196.308 160.667C136.966 157.024 88.0261 150.323 53.9463 138.027C19.8428 125.723 1.00007 107.978 1 82.4277C1 62.3292 12.9743 47.1541 35.123 35.6621C57.3033 24.1538 89.5193 16.4427 129.562 11.2949C209.629 1.00154 320.558 1 444.016 1Z" fill="white" stroke="black" stroke-width="2"/>
</svg>
